<?xml version="1.0" encoding="utf-8"?><!-- Uploaded to: SVG Repo, www.svgrepo.com, Generator: SVG Repo Mixer Tools -->
<!-- https://www.svgrepo.com/svg/452051/linkedin -->
<!-- BEGIN: LICENSE -->
<!--
MIT License

Copyright (c) Garuda Technology

Permission is hereby granted, free of charge, to any person obtaining a copy
of this software and associated documentation files (the "Software"), to deal
in the Software without restriction, including without limitation the rights
to use, copy, modify, merge, publish, distribute, sublicense, and/or sell
copies of the Software, and to permit persons to whom the Software is
furnished to do so, subject to the following conditions:

The above copyright notice and this permission notice shall be included in all
copies or substantial portions of the Software.

THE SOFTWARE IS PROVIDED "AS IS", WITHOUT WARRANTY OF ANY KIND, EXPRESS OR
IMPLIED, INCLUDING BUT NOT LIMITED TO THE WARRANTIES OF MERCHANTABILITY,
FITNESS FOR A PARTICULAR PURPOSE AND NONINFRINGEMENT. IN NO EVENT SHALL THE
AUTHORS OR COPYRIGHT HOLDERS BE LIABLE FOR ANY CLAIM, DAMAGES OR OTHER
LIABILITY, WHETHER IN AN ACTION OF CONTRACT, TORT OR OTHERWISE, ARISING FROM,
OUT OF OR IN CONNECTION WITH THE SOFTWARE OR THE USE OR OTHER DEALINGS IN THE
SOFTWARE.
-->
<!-- END: LICENSE -->
<svg width="800px" height="800px" viewBox="0 0 48 48" fill="none" xmlns="http://www.w3.org/2000/svg">
<circle cx="24" cy="24" r="20" fill="#0077B5"/>
<path fill-rule="evenodd" clip-rule="evenodd" d="M18.7747 14.2839C18.7747 15.529 17.8267 16.5366 16.3442 16.5366C14.9194 16.5366 13.9713 15.529 14.0007 14.2839C13.9713 12.9783 14.9193 12 16.3726 12C17.8267 12 18.7463 12.9783 18.7747 14.2839ZM14.1199 32.8191V18.3162H18.6271V32.8181H14.1199V32.8191Z" fill="white"/>
<path fill-rule="evenodd" clip-rule="evenodd" d="M22.2393 22.9446C22.2393 21.1357 22.1797 19.5935 22.1201 18.3182H26.0351L26.2432 20.305H26.3322C26.9254 19.3854 28.4079 17.9927 30.8101 17.9927C33.7752 17.9927 35.9995 19.9502 35.9995 24.219V32.821H31.4922V24.7838C31.4922 22.9144 30.8404 21.6399 29.2093 21.6399C27.9633 21.6399 27.2224 22.4999 26.9263 23.3297C26.8071 23.6268 26.7484 24.0412 26.7484 24.4574V32.821H22.2411V22.9446H22.2393Z" fill="white"/>
</svg>
